<?xml version="1.0" encoding="utf-8"?>
<!-- Generator: Adobe Illustrator 19.0.0, SVG Export Plug-In . SVG Version: 6.00 Build 0)  -->
<svg version="1.1" xmlns="http://www.w3.org/2000/svg" xmlns:xlink="http://www.w3.org/1999/xlink" x="0px" y="0px"
	 viewBox="0 0 503.1 239.8" style="enable-background:new 0 0 503.1 239.8;" xml:space="preserve">
<style type="text/css">
	.st0{fill:#FFFFFF;}
</style>
<g id="Layer_1">
	<g id="XMLID_37_">
		<path id="XMLID_38_" class="st0" d="M139.3,114.3h-14V28.4h12.8c10.4,0,15.4,5.9,15.4,17.5v8.3c0,8-3.7,12.9-8.3,14.9
			c5.3,1.3,9.5,5.8,9.5,16.1v10.9C154.7,107.3,150.1,114.3,139.3,114.3z M148.6,46.2c0-8.7-3.7-13.2-10.8-13.2h-7.6v34.1h7.6
			c7.4,0,10.8-5.4,10.8-13.2V46.2z M149.8,85.4c0-9.4-3.6-13.7-10.8-13.7h-8.8v37.8h8.8c7.2,0,10.8-4.3,10.8-13.7V85.4z"/>
		<path id="XMLID_42_" class="st0" d="M185.2,114.3V87.4c0-7.8-3.4-13.2-10.8-13.2h-7.1v40h-4.9V28.4h12.2
			c10.4,0,15.4,5.9,15.4,17.5v10.8c0,8-3.7,13.2-8.3,15.1c4.6,2,8.3,6.6,8.3,14.6v27.8H185.2z M185.2,46.2c0-8.7-3.7-13.2-10.8-13.2
			h-7.1v36.6h7.1c7.4,0,10.8-5.4,10.8-13.2V46.2z"/>
		<path id="XMLID_45_" class="st0" d="M198.6,114.3V28.4H221V33h-17.5v34.5H219v4.6h-15.5v37.4H221v4.7H198.6z"/>
		<path id="XMLID_47_" class="st0" d="M244.2,33v81.3h-4.9V33h-12.5v-4.6h29.9V33H244.2z"/>
		<path id="XMLID_49_" class="st0" d="M278.6,33v81.3h-4.9V33h-12.5v-4.6h29.9V33H278.6z"/>
	</g>
	<g id="XMLID_16_">
		<path id="XMLID_17_" class="st0" d="M144.4,152.4v-8.7c0-3-1.8-4.7-3.9-4.7s-4,1.7-4,4.7v47.4c0,3,1.8,4.7,4,4.7s3.9-1.7,3.9-4.7
			v-13h-4.5v-14.5h21.5v46.8h-8.8l-2.1-5.4c-2.4,4-6.8,6.5-12,6.5c-11.7,0-19.4-6.8-19.4-19.5v-48.7c0-12.4,8.4-19.8,21.3-19.8
			c12.9,0,21.3,7.4,21.3,19.8v9.2H144.4z"/>
		<path id="XMLID_19_" class="st0" d="M194.5,210.4v-30.2c0-3-1.6-4.6-3.7-4.6h-4.3v34.8h-17.3v-85.9h21.2
			c14.8,0,21.2,6.7,21.2,19.5V155c0,6.2-2.1,11.5-7,13c4.9,1.6,7,6.9,7,13v29.2H194.5z M194.5,148.1v-3.6c0-3.2-1.6-4.9-4.1-4.9h-4
			v20.4h4.3c2.1,0,3.7-1.6,3.7-4.6V148.1z"/>
		<path id="XMLID_22_" class="st0" d="M219.7,210.4v-85.9h17.4v85.9H219.7z"/>
		<path id="XMLID_24_" class="st0" d="M265,211.4c-12.9,0-21.9-7.4-21.9-19.8v-9.2h17.3v9.1c0,3.2,2.1,4.9,4.6,4.9
			c3.2,0,5-2.1,5-6.6c0-3.7-1.2-7-3.6-9.4l-14.4-14.4c-5-5-7.9-10.7-7.9-21.1c0-14,7.1-21.6,20.8-21.6c12.9,0,20.4,7.4,20.4,19.8
			v9.2H269v-9.1c0-2.8-1.3-4.9-4-4.9c-2.8,0-4.2,2.9-4.2,7c0,3.7,1.1,6.7,3,8.7l14.4,14.4c5,5,8.3,10.7,8.3,21.1
			C286.5,203.3,278.8,211.4,265,211.4z"/>
		<path id="XMLID_26_" class="st0" d="M292.7,210.4v-85.9h17.4v85.9H292.7z"/>
		<path id="XMLID_28_" class="st0" d="M348,210.4l-13.6-45.7h-0.3c0,0,0.9,6.8,0.9,12.6v33.1h-16.6v-85.9h15.5l13.6,46.9h0.3
			c0,0-0.9-7-0.9-12.9v-34h16.6v85.9H348z"/>
		<path id="XMLID_30_" class="st0" d="M396.3,152.4v-8.7c0-3-1.8-4.7-3.9-4.7s-4,1.7-4,4.7v47.4c0,3,1.8,4.7,4,4.7s3.9-1.7,3.9-4.7
			v-13h-4.5v-14.5h21.5v46.8h-8.8l-2.1-5.4c-2.4,4-6.8,6.5-12,6.5c-11.7,0-19.4-6.8-19.4-19.5v-48.7c0-12.4,8.4-19.8,21.3-19.8
			c12.9,0,21.3,7.4,21.3,19.8v9.2H396.3z"/>
		<path id="XMLID_32_" class="st0" d="M421.1,210.4v-85.9h34V140h-16.7v18.4h14.8v15.3h-14.9v21.1H455v15.5H421.1z"/>
		<path id="XMLID_34_" class="st0" d="M486,210.4v-30.2c0-3-1.6-4.6-3.7-4.6H478v34.8h-17.3v-85.9h21.2c14.8,0,21.2,6.7,21.2,19.5
			V155c0,6.2-2.1,11.5-7,13c4.9,1.6,7,6.9,7,13v29.2H486z M486,148.1v-3.6c0-3.2-1.6-4.9-4.1-4.9h-4v20.4h4.3c2.1,0,3.7-1.6,3.7-4.6
			V148.1z"/>
	</g>
</g>
<g id="Layer_2">
</g>
</svg>
